<svg width="14" height="13" viewBox="0 0 14 13" fill="none" xmlns="http://www.w3.org/2000/svg">
<path d="M12.5726 1.90722C12.4868 1.87484 12.3928 1.87158 12.3049 1.89793C12.2171 1.92428 12.1403 1.97879 12.0865 2.05305L9.78236 5.12527L7.37124 0.38083C7.33356 0.316277 7.27963 0.262723 7.21481 0.225505C7.14999 0.188286 7.07655 0.168701 7.0018 0.168701C6.92705 0.168701 6.85361 0.188286 6.78879 0.225505C6.72397 0.262723 6.67004 0.316277 6.63236 0.38083L4.22124 5.12527L1.91708 2.05305C1.86439 1.97746 1.78768 1.92192 1.69943 1.89544C1.61118 1.86897 1.51656 1.87312 1.43097 1.90722C1.34695 1.94352 1.27643 2.00526 1.22934 2.08374C1.18225 2.16223 1.16096 2.2535 1.16847 2.34472L2.03374 9.56833C2.04315 9.63814 2.06928 9.70465 2.1099 9.7622C2.15053 9.81975 2.20445 9.86664 2.26708 9.89888C3.73772 10.6359 5.35692 11.0282 7.0018 11.0461C8.64744 11.0252 10.2667 10.6295 11.7365 9.88916C11.7992 9.85692 11.8531 9.81003 11.8937 9.75248C11.9343 9.69493 11.9604 9.62842 11.9699 9.55861L12.8351 2.34472C12.8426 2.2535 12.8214 2.16223 12.7743 2.08374C12.7272 2.00526 12.6567 1.94352 12.5726 1.90722Z" fill="#F2BF26"/>
</svg>
